<mxfile host="app.diagrams.net" modified="2024-06-07T03:33:52.231Z" agent="Mozilla/5.0 (Windows NT 10.0; Win64; x64) AppleWebKit/537.36 (KHTML, like Gecko) Chrome/125.0.0.0 Safari/537.36 Edg/125.0.0.0" etag="pG0Ofp4e8csxbJbmLkkG" version="24.4.13" type="github">
  <diagram name="第 1 页" id="cMK7JDUvZT4BYyie77ED">
    <mxGraphModel dx="1213" dy="746" grid="1" gridSize="10" guides="1" tooltips="1" connect="1" arrows="1" fold="1" page="1" pageScale="1" pageWidth="827" pageHeight="1169" math="0" shadow="0">
      <root>
        <mxCell id="0" />
        <mxCell id="1" parent="0" />
        <mxCell id="AR4m9xngql7emWe2jwpg-1" value="function1" style="rounded=1;whiteSpace=wrap;html=1;fillColor=#d5e8d4;strokeColor=#82b366;" vertex="1" parent="1">
          <mxGeometry x="140" y="350" width="110" height="40" as="geometry" />
        </mxCell>
        <mxCell id="AR4m9xngql7emWe2jwpg-2" value="function2" style="rounded=1;whiteSpace=wrap;html=1;fillColor=#fff2cc;strokeColor=#d6b656;" vertex="1" parent="1">
          <mxGeometry x="330" y="350" width="110" height="40" as="geometry" />
        </mxCell>
        <mxCell id="AR4m9xngql7emWe2jwpg-3" value="upvalue1" style="rounded=0;whiteSpace=wrap;html=1;fillColor=#f8cecc;strokeColor=#b85450;" vertex="1" parent="1">
          <mxGeometry x="120" y="230" width="90" height="40" as="geometry" />
        </mxCell>
        <mxCell id="AR4m9xngql7emWe2jwpg-4" value="upvalue2" style="rounded=0;whiteSpace=wrap;html=1;fillColor=#f8cecc;strokeColor=#b85450;" vertex="1" parent="1">
          <mxGeometry x="260" y="230" width="90" height="40" as="geometry" />
        </mxCell>
        <mxCell id="AR4m9xngql7emWe2jwpg-5" value="upvalue3" style="rounded=0;whiteSpace=wrap;html=1;fillColor=#f8cecc;strokeColor=#b85450;" vertex="1" parent="1">
          <mxGeometry x="400" y="230" width="90" height="40" as="geometry" />
        </mxCell>
        <mxCell id="AR4m9xngql7emWe2jwpg-6" value="" style="endArrow=classic;html=1;rounded=0;exitX=0.5;exitY=0;exitDx=0;exitDy=0;entryX=0.5;entryY=1;entryDx=0;entryDy=0;" edge="1" parent="1" source="AR4m9xngql7emWe2jwpg-1" target="AR4m9xngql7emWe2jwpg-3">
          <mxGeometry width="50" height="50" relative="1" as="geometry">
            <mxPoint x="390" y="410" as="sourcePoint" />
            <mxPoint x="440" y="360" as="targetPoint" />
          </mxGeometry>
        </mxCell>
        <mxCell id="AR4m9xngql7emWe2jwpg-8" value="" style="endArrow=classic;html=1;rounded=0;exitX=0.5;exitY=0;exitDx=0;exitDy=0;entryX=0.5;entryY=1;entryDx=0;entryDy=0;" edge="1" parent="1" source="AR4m9xngql7emWe2jwpg-1" target="AR4m9xngql7emWe2jwpg-4">
          <mxGeometry width="50" height="50" relative="1" as="geometry">
            <mxPoint x="330" y="350" as="sourcePoint" />
            <mxPoint x="300" y="270" as="targetPoint" />
          </mxGeometry>
        </mxCell>
        <mxCell id="AR4m9xngql7emWe2jwpg-9" value="" style="endArrow=classic;html=1;rounded=0;exitX=0.5;exitY=0;exitDx=0;exitDy=0;entryX=0.5;entryY=1;entryDx=0;entryDy=0;" edge="1" parent="1" source="AR4m9xngql7emWe2jwpg-2" target="AR4m9xngql7emWe2jwpg-4">
          <mxGeometry width="50" height="50" relative="1" as="geometry">
            <mxPoint x="205" y="360" as="sourcePoint" />
            <mxPoint x="315" y="280" as="targetPoint" />
          </mxGeometry>
        </mxCell>
        <mxCell id="AR4m9xngql7emWe2jwpg-10" value="" style="endArrow=classic;html=1;rounded=0;exitX=0.5;exitY=0;exitDx=0;exitDy=0;entryX=0.5;entryY=1;entryDx=0;entryDy=0;" edge="1" parent="1" source="AR4m9xngql7emWe2jwpg-2" target="AR4m9xngql7emWe2jwpg-5">
          <mxGeometry width="50" height="50" relative="1" as="geometry">
            <mxPoint x="395" y="360" as="sourcePoint" />
            <mxPoint x="440" y="280" as="targetPoint" />
          </mxGeometry>
        </mxCell>
      </root>
    </mxGraphModel>
  </diagram>
</mxfile>
